<svg xmlns="http://www.w3.org/2000/svg" version="1.1" xmlnsXlink="http://www.w3.org/1999/xlink" xmlnsSvgjs="http://svgjs.dev/svgjs" width="1500" height="1687" viewBox="0 0 1500 1687"><g transform="matrix(1,0,0,1,0.0009843749999163265,0)"><svg viewBox="0 0 320 360" data-background-color="#ffffff" preserveAspectRatio="xMidYMid meet" height="1687" width="1500" xmlns="http://www.w3.org/2000/svg" xmlnsXlink="http://www.w3.org/1999/xlink"><g id="tight-bounds" transform="matrix(1,0,0,1,-0.00020999999998139174,0)"><svg viewBox="0 0 320 360" height="360" width="320"><g><svg></svg></g><g><svg viewBox="0 0 320 360" height="360" width="320"><g><path transform="translate(-17.77778,2.22222) scale(3.55556,3.55556)" d="M95 52c0-12.871-5.692-24.431-14.682-32.318-7.887-8.99-19.447-14.682-32.318-14.682-23.71 0-43 19.29-43 43 0 12.868 5.69 24.426 14.677 32.313 7.887 8.993 19.449 14.687 32.323 14.687 0.084 0 0.166-0.006 0.25-0.006 0.084 0 0.166 0.006 0.25 0.006 23.472 0 42.5-19.028 42.5-42.5 0-0.084-0.006-0.166-0.006-0.25 0-0.084 0.006-0.166 0.006-0.25zM21.828 73.371c-4.245-5.978-6.77-13.259-6.822-21.121 0.135-20.511 16.732-37.109 37.244-37.244 7.862 0.052 15.144 2.577 21.121 6.822 6.853 6.645 11.129 15.93 11.129 26.172 0 20.126-16.374 36.5-36.5 36.5-10.242 0-19.527-4.276-26.172-11.129zM6 48c0-23.159 18.841-42 42-42 9.858 0 18.926 3.422 26.1 9.13-6.463-3.888-14.024-6.13-22.1-6.13-23.71 0-43 19.29-43 43 0 8.074 2.241 15.633 6.127 22.095-5.706-7.172-9.127-16.239-9.127-26.095zM52 89c-10.08 0-19.227-4.055-25.905-10.615 6.174 4.469 13.743 7.115 21.905 7.115 20.678 0 37.5-16.822 37.5-37.5 0-8.162-2.646-15.731-7.115-21.905 6.56 6.678 10.615 15.825 10.615 25.905 0 20.402-16.598 37-37 37z" fill="#e53e3e" fill-rule="nonzero" stroke="none" stroke-width="1" stroke-linecap="butt" stroke-linejoin="miter" stroke-miterlimit="10" stroke-dasharray="" stroke-dashoffset="0" font-family="none" font-weight="none" font-size="none" text-anchor="none" style="mix-blend-mode: normal" data-fill-palette-color="tertiary"></path></g><g transform="matrix(1,0,0,1,64,143.92385361317366)"><svg viewBox="0 0 192 72.15229277365268" height="72.15229277365268" width="192"><g><svg viewBox="0 0 192 72.15229277365268" height="72.15229277365268" width="192"><g><svg viewBox="0 0 354.45180143649264 133.20057370517927" height="72.15229277365268" width="192"><g transform="matrix(1,0,0,1,162.45180143649264,37.91502788844621)"><svg viewBox="0 0 192 57.370517928286844" height="57.370517928286844" width="192"><g id="textblocktransform"><svg viewBox="0 0 192 57.370517928286844" height="57.370517928286844" width="192" id="textblock"><g><svg viewBox="0 0 192 57.370517928286844" height="57.370517928286844" width="192"><g transform="matrix(1,0,0,1,0,0)"><svg width="192" viewBox="4.2 -35 150.59 45" height="57.370517928286844" data-palette-color="#e53e3e"><path d="M15.75-34.9L15.75-34.9Q20.05-34.9 22.58-34.13 25.1-33.35 26.23-31.4 27.35-29.45 27.35-25.9L27.35-25.9Q27.35-22.2 25.98-20.25 24.6-18.3 21.5-18L21.5-18 21.5-17.8Q25.35-17.45 26.9-15.1 28.45-12.75 28.45-8.6L28.45-8.6Q28.45-5.05 27.33-3.1 26.2-1.15 23.75-0.38 21.3 0.4 17.3 0.4L17.3 0.4Q14.25 0.4 12.08 0.38 9.9 0.35 8.05 0.25 6.2 0.15 4.2 0L4.2 0 4.9-3.85Q6-3.8 9.15-3.75 12.3-3.7 16.5-3.7L16.5-3.7Q19.1-3.7 20.6-4.15 22.1-4.6 22.75-5.85 23.4-7.1 23.4-9.5L23.4-9.5Q23.4-12.1 22.73-13.48 22.05-14.85 20.5-15.43 18.95-16 16.2-16.05L16.2-16.05 4.85-16.05 4.85-19.7 16.15-19.7Q18.55-19.75 19.95-20.2 21.35-20.65 21.95-21.88 22.55-23.1 22.55-25.3L22.55-25.3Q22.55-27.55 21.9-28.75 21.25-29.95 19.7-30.38 18.15-30.8 15.5-30.8L15.5-30.8Q13-30.8 11-30.8 9-30.8 7.5-30.78 6-30.75 4.9-30.65L4.9-30.65 4.2-34.5Q6-34.7 7.63-34.77 9.25-34.85 11.18-34.88 13.1-34.9 15.75-34.9ZM4.2-34.5L9.1-34.5 9.1 0 4.2 0 4.2-34.5ZM35.15-24.4L39.9-24.4 39.9 0 35.15 0 35.15-24.4ZM36.4-34.85L38.65-34.85Q40.1-34.85 40.1-33.4L40.1-33.4 40.1-30.55Q40.1-29.1 38.65-29.1L38.65-29.1 36.4-29.1Q34.95-29.1 34.95-30.55L34.95-30.55 34.95-33.4Q34.95-34.85 36.4-34.85L36.4-34.85ZM47.65-35L52.45-35 52.4-6.95Q52.4-5.4 53.27-4.6 54.15-3.8 55.7-3.8L55.7-3.8 58-3.8 58.55-0.25Q58.05 0 57.17 0.15 56.3 0.3 55.37 0.38 54.45 0.45 53.8 0.45L53.8 0.45Q51 0.45 49.32-1.15 47.65-2.75 47.65-5.8L47.65-5.8 47.65-35ZM62.94-24.4L67.69-24.4 67.69 0 62.94 0 62.94-24.4ZM64.19-34.85L66.44-34.85Q67.89-34.85 67.89-33.4L67.89-33.4 67.89-30.55Q67.89-29.1 66.44-29.1L66.44-29.1 64.19-29.1Q62.74-29.1 62.74-30.55L62.74-30.55 62.74-33.4Q62.74-34.85 64.19-34.85L64.19-34.85ZM90.64-25L90.64-25Q97.29-25 97.29-18.3L97.29-18.3 97.29 0 92.44 0 92.44-16.9Q92.44-19.2 91.69-20.08 90.94-20.95 89.14-20.95L89.14-20.95Q86.99-20.95 84.84-19.93 82.69-18.9 79.69-17.1L79.69-17.1 79.49-20.35Q82.29-22.6 85.09-23.8 87.89-25 90.64-25ZM75.39-24.4L79.39-24.4 79.84-19.7 80.19-19 80.19 0 75.39 0 75.39-24.4ZM114.54-25L114.54-25Q118.49-25 120.81-24.23 123.14-23.45 124.14-21.73 125.14-20 125.14-17.25L125.14-17.25Q125.14-14.6 124.14-12.88 123.14-11.15 120.79-10.33 118.44-9.5 114.49-9.5L114.49-9.5Q110.49-9.5 108.16-10.33 105.84-11.15 104.84-12.85 103.84-14.55 103.84-17.2L103.84-17.2Q103.84-20 104.84-21.73 105.84-23.45 108.19-24.23 110.54-25 114.54-25ZM114.49-21.55L114.49-21.55Q110.99-21.55 109.64-20.58 108.29-19.6 108.29-17.25L108.29-17.25Q108.29-14.95 109.64-13.95 110.99-12.95 114.49-12.95L114.49-12.95Q117.99-12.95 119.31-13.95 120.64-14.95 120.64-17.25L120.64-17.25Q120.64-19.6 119.31-20.58 117.99-21.55 114.49-21.55ZM119.69-24.4L127.99-24.4 127.74-21.9 121.44-21.35 119.69-24.4ZM107.54-11.05L107.54-11.05 110.19-10.7Q109.39-10 109.09-8.95 108.79-7.9 109.24-7.05 109.69-6.2 111.24-5.95L111.24-5.95 120.34-4.55Q123.84-4.1 125.24-2.43 126.64-0.75 126.64 2.35L126.64 2.35Q126.64 5.3 125.51 6.95 124.39 8.6 121.79 9.3 119.19 10 114.79 10L114.79 10Q111.34 10 109.04 9.63 106.74 9.25 105.36 8.38 103.99 7.5 103.39 6.1 102.79 4.7 102.79 2.65L102.79 2.65Q102.79 1.05 103.26-0.05 103.74-1.15 104.84-2 105.94-2.85 107.69-3.65L107.69-3.65 110.84-5.2 112.94-4.45 110.54-2.7Q109.49-1.95 108.81-1.23 108.14-0.5 107.79 0.28 107.44 1.05 107.44 2.15L107.44 2.15Q107.44 3.75 108.06 4.6 108.69 5.45 110.29 5.75 111.89 6.05 114.74 6.05L114.74 6.05Q117.59 6.05 119.14 5.73 120.69 5.4 121.31 4.58 121.94 3.75 121.94 2.2L121.94 2.2Q121.94 1 121.61 0.38 121.29-0.25 120.39-0.58 119.49-0.9 117.79-1.15L117.79-1.15 109.24-2.25Q107.59-2.45 106.64-3.28 105.69-4.1 105.31-5.23 104.94-6.35 105.11-7.48 105.29-8.6 105.91-9.6 106.54-10.6 107.54-11.05ZM143.09-25L143.09-25Q147.39-25 149.96-23.75 152.54-22.5 153.66-19.68 154.79-16.85 154.79-12.2L154.79-12.2Q154.79-7.5 153.66-4.67 152.54-1.85 149.96-0.6 147.39 0.65 143.09 0.65L143.09 0.65Q138.84 0.65 136.26-0.6 133.69-1.85 132.54-4.67 131.39-7.5 131.39-12.2L131.39-12.2Q131.39-16.85 132.54-19.68 133.69-22.5 136.26-23.75 138.84-25 143.09-25ZM143.09-21.1L143.09-21.1Q140.59-21.1 139.14-20.3 137.69-19.5 137.09-17.57 136.49-15.65 136.49-12.2L136.49-12.2Q136.49-8.75 137.09-6.8 137.69-4.85 139.14-4.08 140.59-3.3 143.09-3.3L143.09-3.3Q145.59-3.3 147.06-4.08 148.54-4.85 149.14-6.8 149.74-8.75 149.74-12.2L149.74-12.2Q149.74-15.65 149.14-17.57 148.54-19.5 147.06-20.3 145.59-21.1 143.09-21.1Z" opacity="1" transform="matrix(1,0,0,1,0,0)" fill="#e53e3e" class="wordmark-text-0" data-fill-palette-color="primary" id="text-0"></path></svg></g></svg></g></svg></g></svg></g><g><svg viewBox="0 0 148.9079990460544 133.20057370517927" height="133.20057370517927" width="148.9079990460544"><g><svg xmlns="http://www.w3.org/2000/svg" xmlnsXlink="http://www.w3.org/1999/xlink" version="1.1" x="0" y="0" viewBox="5.493 9.132432152620149 90.00015236235141 80.50656784737984" enable-background="new 0 0 100 100" xmlSpace="preserve" height="133.20057370517927" width="148.9079990460544" class="icon-icon-0" data-fill-palette-color="accent" id="icon-0"><path d="M69.673 44.032c-0.379 0-0.741-0.216-0.909-0.582l-2.305-5.007c-0.231-0.501-0.012-1.095 0.49-1.326 0.504-0.232 1.097-0.011 1.326 0.49l2.305 5.007c0.231 0.501 0.012 1.095-0.49 1.326C69.954 44.003 69.812 44.032 69.673 44.032zM76.51 38.607c0.319-0.451 0.212-1.075-0.239-1.394l-4.5-3.184c-0.45-0.319-1.074-0.211-1.394 0.239-0.319 0.451-0.212 1.075 0.239 1.394l4.5 3.184c0.175 0.124 0.377 0.184 0.576 0.184C76.006 39.03 76.314 38.883 76.51 38.607zM79.402 30.779c0.051-0.55-0.354-1.037-0.904-1.088l-5.488-0.507c-0.558-0.047-1.037 0.354-1.088 0.903-0.051 0.55 0.354 1.037 0.904 1.088l5.488 0.507c0.031 0.003 0.063 0.004 0.093 0.004C78.918 31.687 79.354 31.298 79.402 30.779zM55.431 42.218l3.184-4.5c0.319-0.451 0.212-1.075-0.239-1.394-0.45-0.32-1.074-0.211-1.394 0.239l-3.184 4.5c-0.319 0.451-0.212 1.075 0.239 1.394 0.175 0.124 0.377 0.184 0.576 0.184C54.927 42.641 55.235 42.494 55.431 42.218zM62.953 44.446l0.507-5.489c0.051-0.55-0.354-1.037-0.904-1.087-0.558-0.05-1.037 0.354-1.088 0.904l-0.507 5.489c-0.051 0.55 0.354 1.037 0.904 1.087 0.031 0.003 0.063 0.004 0.093 0.004C62.469 45.354 62.905 44.965 62.953 44.446zM77.378 23.269c0.011 0.4-0.218 0.768-0.582 0.936l-7.413 3.413c0.502 1.378 0.504 2.874-0.01 4.265-0.574 1.555-1.722 2.794-3.231 3.489-0.839 0.386-1.72 0.569-2.588 0.569-2.184 0-4.271-1.168-5.398-3.153l-7.421 3.417c-0.134 0.062-0.276 0.092-0.418 0.092-0.243 0-0.483-0.088-0.671-0.258-0.297-0.269-0.405-0.688-0.274-1.067l4.126-12.005-3.674-7.98c-0.091-0.197-0.094-0.403-0.057-0.601l-14.797 2.74v1.851c0 0.036-0.089 0.424-0.15 0.523-0.003 0.009-21.496 34.207-21.496 34.207l9.093 24.208h12.456c0.553 0 1 0.447 1 1v5.421c0 0.553-0.447 1-1 1H6.493c-0.553 0-1-0.447-1-1v-5.421c0-0.553 0.447-1 1-1h9.668L7.158 53.945c-0.008-0.022-0.085-0.222-0.07-0.428 0.014-0.193 0.12-0.391 0.156-0.449 0.021-0.034 22.659-36.706 22.659-36.706 0.078-0.125 0.096-0.187 0.256-0.31 0.155-0.12 0.409-0.147 0.413-0.148l24.719-4.578c0.028-0.005 0.111-0.022 0.139-0.024l4.512-2.078c0.241-0.11 0.516-0.122 0.765-0.03s0.451 0.279 0.562 0.52l3.674 7.98 11.804 4.671C77.118 22.514 77.366 22.869 77.378 23.269zM33.874 79.914H7.493v3.421h26.381V79.914zM11.522 54.594H9.538l8.76 23.32h1.983L11.522 54.594zM32.6 19.278l-1.532-0.994L9.887 52.594h1.775L32.6 19.278zM52.059 15.057l3.006 6.527 7.812-3.596L59.87 11.46 52.059 15.057zM67.543 28.465l-7.558 3.48c1.105 1.774 3.372 2.507 5.32 1.61 1.023-0.472 1.803-1.312 2.191-2.366C67.825 30.302 67.826 29.354 67.543 28.465zM73.836 23.366l-9.604-3.8-8.851 4.075-3.357 9.769L73.836 23.366z" fill="#e53e3e" data-fill-palette-color="accent"></path><path d="M72.87 86.633c-0.536 0-1.072-0.099-1.578-0.298-3.911-1.54-8.286-2.965-13.763-2.965-1.346 0-2.692 0.061-4.003 0.18-1.136 0.107-3.511 0.528-6.685 1.183-0.485 0.1-0.974-0.173-1.144-0.641l-7.159-19.896c-0.187-0.52 0.083-1.093 0.603-1.28 0.521-0.187 1.092 0.084 1.28 0.603L47.287 82.6c2.152-0.435 4.688-0.911 6.054-1.041 1.375-0.125 2.783-0.188 4.188-0.188 5.811 0 10.4 1.491 14.496 3.104 0.703 0.276 1.517 0.188 2.177-0.235 3.142-2.017 7.052-3.948 10.459-5.168 3.089-1.112 6.357-1.878 9.715-2.275 0.538-0.07 1.045 0.327 1.11 0.876 0.064 0.548-0.327 1.045-0.876 1.11-3.206 0.38-6.326 1.11-9.273 2.171-3.226 1.155-7.078 3.059-10.055 4.97C74.55 86.392 73.709 86.633 72.87 86.633zM95.343 74.65c-0.161 0.258-0.43 0.429-0.732 0.465-3.206 0.38-6.326 1.11-9.273 2.171-5.613 2.01-9.685 3.903-12.104 5.63-0.173 0.122-0.376 0.186-0.581 0.186-0.129 0-0.259-0.025-0.382-0.076-5.213-2.154-9.106-3.321-14.74-3.321-1.346 0-2.692 0.061-4.003 0.18-1.529 0.146-2.765 0.369-4.508 0.729-0.491 0.098-0.978-0.175-1.145-0.646l-6.892-19.44c-0.097-0.272-0.07-0.574 0.072-0.826s0.388-0.431 0.671-0.488c2.943-0.597 5.97-0.899 8.997-0.899 6.096 0 10.003 1.329 14.665 3.237 6.012-5.047 15.323-7.361 22.155-7.842 0.444-0.033 0.863 0.239 1.013 0.663l6.88 19.417C95.537 74.074 95.503 74.392 95.343 74.65zM57.529 77.704c5.181 0 8.949 0.926 13.417 2.643l-6.158-16.879c-4.518-1.854-8.267-3.156-14.066-3.156-2.506 0-5.012 0.217-7.465 0.646l6.211 17.522c1.197-0.237 2.432-0.45 3.871-0.588C54.716 77.768 56.124 77.704 57.529 77.704zM93.139 73.293l-6.212-17.53c-6.403 0.566-14.743 2.748-20.17 7.265l6.401 17.545c2.613-1.638 6.385-3.336 11.503-5.168C87.369 74.43 90.216 73.721 93.139 73.293zM72.519 65.574c3.573-1.979 7.966-3.448 12.702-4.248 0.545-0.092 0.912-0.608 0.82-1.152-0.093-0.544-0.608-0.91-1.152-0.82-4.958 0.837-9.57 2.383-13.339 4.471-0.483 0.268-0.658 0.877-0.391 1.359 0.183 0.33 0.524 0.516 0.876 0.516C72.199 65.699 72.365 65.659 72.519 65.574zM63.762 66.256c0.18-0.521-0.097-1.091-0.619-1.271-3.857-1.332-7.072-1.875-11.096-1.875-1.488 0-2.856 0.067-4.184 0.206-0.55 0.057-0.948 0.549-0.891 1.098 0.056 0.549 0.543 0.951 1.098 0.891 1.258-0.131 2.559-0.194 3.977-0.194 3.785 0 6.811 0.512 10.443 1.766 0.107 0.037 0.218 0.055 0.326 0.055C63.231 66.93 63.619 66.67 63.762 66.256zM73.955 69.491c3.528-1.984 7.911-3.48 12.674-4.327 0.544-0.097 0.906-0.615 0.81-1.159-0.096-0.543-0.615-0.906-1.159-0.81-4.981 0.885-9.582 2.459-13.305 4.552-0.481 0.271-0.652 0.881-0.382 1.362 0.184 0.326 0.523 0.51 0.873 0.51C73.632 69.619 73.8 69.578 73.955 69.491zM65.364 70.676c0.177-0.522-0.104-1.091-0.627-1.268-3.631-1.229-6.84-1.753-10.73-1.753-1.496 0-3.021 0.079-4.533 0.234-0.55 0.057-0.949 0.548-0.893 1.098 0.058 0.549 0.539 0.937 1.098 0.893 1.444-0.149 2.9-0.225 4.328-0.225 3.66 0 6.677 0.493 10.09 1.647 0.106 0.036 0.214 0.053 0.32 0.053C64.834 71.355 65.224 71.093 65.364 70.676zM75.476 73.625c3.496-2.021 7.865-3.544 12.636-4.401 0.544-0.098 0.905-0.618 0.808-1.161-0.098-0.544-0.619-0.907-1.161-0.808-4.996 0.898-9.59 2.502-13.284 4.64-0.478 0.276-0.642 0.888-0.364 1.366 0.185 0.32 0.521 0.499 0.866 0.499C75.146 73.76 75.317 73.717 75.476 73.625zM67.034 75.001c0.172-0.524-0.114-1.09-0.639-1.262-3.505-1.149-6.615-1.64-10.401-1.64-1.599 0-3.229 0.09-4.849 0.266-0.549 0.06-0.945 0.554-0.886 1.103 0.06 0.548 0.544 0.941 1.103 0.886 1.547-0.169 3.105-0.254 4.632-0.254 3.562 0 6.486 0.461 9.778 1.54 0.104 0.034 0.208 0.05 0.312 0.05C66.505 75.689 66.896 75.422 67.034 75.001z" fill="#e53e3e" data-fill-palette-color="accent"></path><path d="M46.985 89.639H26.013c-0.553 0-1-0.447-1-1s0.447-1 1-1h20.973c0.553 0 1 0.447 1 1S47.538 89.639 46.985 89.639zM62.536 88.639c0-0.553-0.447-1-1-1h-7.659c-0.553 0-1 0.447-1 1s0.447 1 1 1h7.659C62.089 89.639 62.536 89.191 62.536 88.639z" fill="#e53e3e" data-fill-palette-color="accent"></path></svg></g></svg></g></svg></g></svg></g></svg></g></svg></g><defs></defs></svg><rect width="320" height="360" fill="none" stroke="none" visibility="hidden"></rect></g></svg></g></svg>